<svg width="22" height="22" fill="none" xmlns="http://www.w3.org/2000/svg"><g clip-path="url(#a)" stroke="#111" stroke-width="1.4"><path clip-rule="evenodd" d="M1 11C1 5.477 5.477 1 11 1s10 4.477 10 10-4.477 10-10 10S1 16.523 1 11Z"/><path d="M4 18s3.11-.823 3.89-1.647c.777-.824.777-1.647 0-2.47-.78-.824-1.557-3.295-1.557-4.942C6.333 6.471 7.89 4 11 4m7 14s-3.11-.823-3.89-1.647c-.777-.824-.777-1.647 0-2.47.78-.824 1.557-3.295 1.557-4.942C15.667 6.471 14.11 4 11 4"/></g><defs><clipPath id="a"><path fill="#fff" d="M0 0h22v22H0z"/></clipPath></defs></svg>